<?xml version="1.0" encoding="utf-8"?>
<svg viewBox="0 0 500 500" xmlns="http://www.w3.org/2000/svg" xmlns:bx="https://boxy-svg.com">
  <defs>
    <pattern id="pattern-0" x="0" y="0" width="25" height="25" patternUnits="userSpaceOnUse" viewBox="0 0 100 100">
      <rect x="0" y="0" width="50" height="100" style="fill: black;"/>
    </pattern>
  </defs>
  <path d="M 124.203 72.111 L 155.355 124.902 L 93.05 124.902 L 124.203 72.111 Z" style="fill: rgb(255, 255, 204);" transform="matrix(-0.519041, -0.85475, 0.85475, -0.519041, 63.126583, 214.167145)" bx:shape="triangle 93.05 72.111 62.305 52.791 0.5 0 1@095c80e5"/>
  <path d="M 133.001 121.054 L 169.913 184.021 L 96.088 184.021 L 133.001 121.054 Z" style="fill: rgb(255, 255, 204);" transform="matrix(0.860644, -0.509208, 0.509208, 0.860644, -84.35022, 10.083394)" bx:shape="triangle 96.088 121.054 73.825 62.967 0.5 0 1@3a18df12"/>
  <path d="M 138.511 260.651 L 160.142 298.118 L 116.879 298.118 L 138.511 260.651 Z" style="fill: rgb(255, 255, 204);" transform="matrix(0.495167, 0.868798, -0.868798, 0.495167, 273.036774, -148.162079)" bx:shape="triangle 116.879 260.651 43.263 37.467 0.5 0 1@ba1fe33e"/>
  <path d="M 133.001 121.054 L 169.913 184.021 L 96.088 184.021 L 133.001 121.054 Z" style="fill: rgb(255, 255, 204);" transform="matrix(-0.855585, 0.517663, -0.517663, -0.855585, 269.159241, 153.359741)" bx:shape="triangle 96.088 121.054 73.825 62.967 0.5 0 1@3a18df12"/>
  <path d="M 380.256 265.943 L 420.964 336.45 L 339.549 336.45 L 380.256 265.943 Z" style="fill: rgb(255, 255, 204);" transform="matrix(-0.554668, -0.832072, 0.850505, -0.527016, 38.604359, 569.724792)" bx:shape="triangle 339.549 265.943 81.415 70.507 0.5 0 1@676e07e3"/>
  <path d="M 409.077 263.109 L 424.636 290.059 L 393.517 290.059 L 409.077 263.109 Z" style="fill: rgb(255, 255, 204);" transform="matrix(0.294891, -0.955531, 0.955531, 0.294891, -271.022369, 367.992065)" bx:shape="triangle 393.517 263.109 31.119 26.95 0.5 0 1@21ff1794"/>
  <path d="M 343.65 242.516 L 374.998 296.813 L 312.301 296.813 L 343.65 242.516 Z" style="fill: rgb(255, 255, 204);" transform="matrix(-0.963415, -0.268016, 0.268016, -0.963415, 333.657135, 436.110474)" bx:shape="triangle 312.301 242.516 62.697 54.297 0.5 0 1@4a2014dc"/>
  <path d="M 124.203 72.111 L 155.355 124.902 L 93.05 124.902 L 124.203 72.111 Z" style="fill: rgb(255, 255, 204);" transform="matrix(-0.519041, -0.85475, 0.85475, -0.519041, 221.778076, 295.327728)" bx:shape="triangle 93.05 72.111 62.305 52.791 0.5 0 1@095c80e5"/>
  <path d="M 133.001 121.054 L 169.913 184.021 L 96.088 184.021 L 133.001 121.054 Z" style="fill: rgb(255, 255, 204);" transform="matrix(0.860644, -0.509208, 0.509208, 0.860644, 74.301292, 91.243996)" bx:shape="triangle 96.088 121.054 73.825 62.967 0.5 0 1@3a18df12"/>
  <path d="M 138.511 260.651 L 160.142 298.118 L 116.879 298.118 L 138.511 260.651 Z" style="fill: rgb(255, 255, 204);" transform="matrix(0.495167, 0.868798, -0.868798, 0.495167, 431.688263, -67.001488)" bx:shape="triangle 116.879 260.651 43.263 37.467 0.5 0 1@ba1fe33e"/>
  <path d="M 133.001 121.054 L 169.913 184.021 L 96.088 184.021 L 133.001 121.054 Z" style="fill: rgb(255, 255, 204);" transform="matrix(-0.855585, 0.517663, -0.517663, -0.855585, 427.81073, 234.520325)" bx:shape="triangle 96.088 121.054 73.825 62.967 0.5 0 1@3a18df12"/>
  <path d="M 380.256 265.943 L 420.964 336.45 L 339.549 336.45 L 380.256 265.943 Z" style="fill: rgb(255, 255, 204);" transform="matrix(-0.554668, -0.832072, 0.850505, -0.527016, 197.255859, 650.885437)" bx:shape="triangle 339.549 265.943 81.415 70.507 0.5 0 1@676e07e3"/>
  <path d="M 409.077 263.109 L 424.636 290.059 L 393.517 290.059 L 409.077 263.109 Z" style="fill: rgb(255, 255, 204);" transform="matrix(0.294891, -0.955531, 0.955531, 0.294891, -112.370857, 449.152679)" bx:shape="triangle 393.517 263.109 31.119 26.95 0.5 0 1@21ff1794"/>
  <path d="M 343.65 242.516 L 374.998 296.813 L 312.301 296.813 L 343.65 242.516 Z" style="fill: rgb(255, 255, 204);" transform="matrix(-0.963415, -0.268016, 0.268016, -0.963415, 492.308624, 517.271057)" bx:shape="triangle 312.301 242.516 62.697 54.297 0.5 0 1@4a2014dc"/>
  <path d="M 124.203 72.111 L 155.355 124.902 L 93.05 124.902 L 124.203 72.111 Z" style="fill: rgb(255, 255, 204);" transform="matrix(-0.519041, -0.85475, 0.85475, -0.519041, 375.820953, 212.953629)" bx:shape="triangle 93.05 72.111 62.305 52.791 0.5 0 1@095c80e5"/>
  <path d="M 133.001 121.054 L 169.913 184.021 L 96.088 184.021 L 133.001 121.054 Z" style="fill: rgb(255, 255, 204);" transform="matrix(0.860644, -0.509208, 0.509208, 0.860644, 228.344177, 8.869896)" bx:shape="triangle 96.088 121.054 73.825 62.967 0.5 0 1@3a18df12"/>
  <path d="M 138.511 260.651 L 160.142 298.118 L 116.879 298.118 L 138.511 260.651 Z" style="fill: rgb(255, 255, 204);" transform="matrix(0.495167, 0.868798, -0.868798, 0.495167, 585.73114, -149.37558)" bx:shape="triangle 116.879 260.651 43.263 37.467 0.5 0 1@ba1fe33e"/>
  <path d="M 133.001 121.054 L 169.913 184.021 L 96.088 184.021 L 133.001 121.054 Z" style="fill: rgb(255, 255, 204);" transform="matrix(-0.855585, 0.517663, -0.517663, -0.855585, 581.853577, 152.146225)" bx:shape="triangle 96.088 121.054 73.825 62.967 0.5 0 1@3a18df12"/>
  <path d="M 380.256 265.943 L 420.964 336.45 L 339.549 336.45 L 380.256 265.943 Z" style="fill: rgb(255, 255, 204);" transform="matrix(-0.554668, -0.832072, 0.850505, -0.527016, 351.298737, 568.511353)" bx:shape="triangle 339.549 265.943 81.415 70.507 0.5 0 1@676e07e3"/>
  <path d="M 409.077 263.109 L 424.636 290.059 L 393.517 290.059 L 409.077 263.109 Z" style="fill: rgb(255, 255, 204);" transform="matrix(0.294891, -0.955531, 0.955531, 0.294891, 41.672012, 366.778564)" bx:shape="triangle 393.517 263.109 31.119 26.95 0.5 0 1@21ff1794"/>
  <path d="M 343.65 242.516 L 374.998 296.813 L 312.301 296.813 L 343.65 242.516 Z" style="fill: rgb(255, 255, 204);" transform="matrix(-0.963415, -0.268016, 0.268016, -0.963415, 646.351501, 434.896973)" bx:shape="triangle 312.301 242.516 62.697 54.297 0.5 0 1@4a2014dc"/>
</svg>